<mxfile host="65bd71144e">
    <diagram id="C5RBs43oDa-KdzZeNtuy" name="Page-1">
        <mxGraphModel dx="1612" dy="1981" grid="1" gridSize="10" guides="1" tooltips="1" connect="1" arrows="1" fold="1" page="1" pageScale="1" pageWidth="827" pageHeight="1169" math="0" shadow="0">
            <root>
                <mxCell id="WIyWlLk6GJQsqaUBKTNV-0"/>
                <mxCell id="WIyWlLk6GJQsqaUBKTNV-1" parent="WIyWlLk6GJQsqaUBKTNV-0"/>
                <mxCell id="JuefPMasyWt4HqnyWnt0-35" style="edgeStyle=orthogonalEdgeStyle;rounded=0;orthogonalLoop=1;jettySize=auto;html=1;exitX=0.5;exitY=1;exitDx=0;exitDy=0;entryX=0.5;entryY=0;entryDx=0;entryDy=0;" parent="WIyWlLk6GJQsqaUBKTNV-1" source="WIyWlLk6GJQsqaUBKTNV-3" target="JuefPMasyWt4HqnyWnt0-34" edge="1">
                    <mxGeometry relative="1" as="geometry"/>
                </mxCell>
                <mxCell id="WIyWlLk6GJQsqaUBKTNV-3" value="Webhook wordt geschoten naar '/webhook/ccvshop/order'" style="rounded=1;whiteSpace=wrap;html=1;fontSize=12;glass=0;strokeWidth=1;shadow=0;" parent="WIyWlLk6GJQsqaUBKTNV-1" vertex="1">
                    <mxGeometry x="240" y="-10" width="160" height="70" as="geometry"/>
                </mxCell>
                <mxCell id="JuefPMasyWt4HqnyWnt0-1" style="edgeStyle=orthogonalEdgeStyle;rounded=0;orthogonalLoop=1;jettySize=auto;html=1;exitX=0.5;exitY=1;exitDx=0;exitDy=0;entryX=0.5;entryY=0;entryDx=0;entryDy=0;" parent="WIyWlLk6GJQsqaUBKTNV-1" source="JuefPMasyWt4HqnyWnt0-0" target="WIyWlLk6GJQsqaUBKTNV-3" edge="1">
                    <mxGeometry relative="1" as="geometry"/>
                </mxCell>
                <mxCell id="JuefPMasyWt4HqnyWnt0-0" value="Order wordt aangemaakt" style="rounded=1;whiteSpace=wrap;html=1;fontSize=12;glass=0;strokeWidth=1;shadow=0;" parent="WIyWlLk6GJQsqaUBKTNV-1" vertex="1">
                    <mxGeometry x="250" y="-120" width="140" height="50" as="geometry"/>
                </mxCell>
                <mxCell id="JuefPMasyWt4HqnyWnt0-7" style="edgeStyle=orthogonalEdgeStyle;rounded=0;orthogonalLoop=1;jettySize=auto;html=1;exitX=1;exitY=0.5;exitDx=0;exitDy=0;startArrow=none;" parent="WIyWlLk6GJQsqaUBKTNV-1" source="JuefPMasyWt4HqnyWnt0-8" target="JuefPMasyWt4HqnyWnt0-5" edge="1">
                    <mxGeometry relative="1" as="geometry"/>
                </mxCell>
                <mxCell id="JuefPMasyWt4HqnyWnt0-11" style="edgeStyle=orthogonalEdgeStyle;rounded=0;orthogonalLoop=1;jettySize=auto;html=1;exitX=0.5;exitY=1;exitDx=0;exitDy=0;startArrow=none;entryX=0.5;entryY=0;entryDx=0;entryDy=0;" parent="WIyWlLk6GJQsqaUBKTNV-1" source="JuefPMasyWt4HqnyWnt0-12" target="JuefPMasyWt4HqnyWnt0-16" edge="1">
                    <mxGeometry relative="1" as="geometry">
                        <mxPoint x="560" y="400" as="targetPoint"/>
                    </mxGeometry>
                </mxCell>
                <mxCell id="JuefPMasyWt4HqnyWnt0-4" value="Bestaat &lt;br&gt;E-Mailadres al?" style="rhombus;whiteSpace=wrap;html=1;" parent="WIyWlLk6GJQsqaUBKTNV-1" vertex="1">
                    <mxGeometry x="520" y="150" width="140" height="125" as="geometry"/>
                </mxCell>
                <mxCell id="JuefPMasyWt4HqnyWnt0-19" style="edgeStyle=orthogonalEdgeStyle;rounded=0;orthogonalLoop=1;jettySize=auto;html=1;exitX=0.5;exitY=1;exitDx=0;exitDy=0;entryX=0.5;entryY=0;entryDx=0;entryDy=0;" parent="WIyWlLk6GJQsqaUBKTNV-1" source="JuefPMasyWt4HqnyWnt0-5" target="JuefPMasyWt4HqnyWnt0-17" edge="1">
                    <mxGeometry relative="1" as="geometry">
                        <mxPoint x="760" y="490" as="targetPoint"/>
                    </mxGeometry>
                </mxCell>
                <mxCell id="JuefPMasyWt4HqnyWnt0-5" value="Retourneer bestaande referral code" style="rounded=1;whiteSpace=wrap;html=1;" parent="WIyWlLk6GJQsqaUBKTNV-1" vertex="1">
                    <mxGeometry x="760" y="182.5" width="120" height="60" as="geometry"/>
                </mxCell>
                <mxCell id="JuefPMasyWt4HqnyWnt0-8" value="Ja" style="text;html=1;align=center;verticalAlign=middle;resizable=0;points=[];autosize=1;strokeColor=none;fillColor=none;" parent="WIyWlLk6GJQsqaUBKTNV-1" vertex="1">
                    <mxGeometry x="700" y="202.5" width="30" height="20" as="geometry"/>
                </mxCell>
                <mxCell id="JuefPMasyWt4HqnyWnt0-10" value="" style="edgeStyle=orthogonalEdgeStyle;rounded=0;orthogonalLoop=1;jettySize=auto;html=1;exitX=1;exitY=0.5;exitDx=0;exitDy=0;endArrow=none;" parent="WIyWlLk6GJQsqaUBKTNV-1" source="JuefPMasyWt4HqnyWnt0-4" target="JuefPMasyWt4HqnyWnt0-8" edge="1">
                    <mxGeometry relative="1" as="geometry">
                        <mxPoint x="630" y="250" as="sourcePoint"/>
                        <mxPoint x="760" y="250" as="targetPoint"/>
                    </mxGeometry>
                </mxCell>
                <mxCell id="JuefPMasyWt4HqnyWnt0-12" value="Nee" style="text;html=1;align=center;verticalAlign=middle;resizable=0;points=[];autosize=1;strokeColor=none;fillColor=none;" parent="WIyWlLk6GJQsqaUBKTNV-1" vertex="1">
                    <mxGeometry x="570" y="340" width="40" height="20" as="geometry"/>
                </mxCell>
                <mxCell id="JuefPMasyWt4HqnyWnt0-13" value="" style="edgeStyle=orthogonalEdgeStyle;rounded=0;orthogonalLoop=1;jettySize=auto;html=1;exitX=0.5;exitY=1;exitDx=0;exitDy=0;endArrow=none;" parent="WIyWlLk6GJQsqaUBKTNV-1" source="JuefPMasyWt4HqnyWnt0-4" target="JuefPMasyWt4HqnyWnt0-12" edge="1">
                    <mxGeometry relative="1" as="geometry">
                        <mxPoint x="560" y="400" as="targetPoint"/>
                        <mxPoint x="560" y="310" as="sourcePoint"/>
                    </mxGeometry>
                </mxCell>
                <mxCell id="JuefPMasyWt4HqnyWnt0-25" style="edgeStyle=orthogonalEdgeStyle;rounded=0;orthogonalLoop=1;jettySize=auto;html=1;exitX=1;exitY=0.5;exitDx=0;exitDy=0;entryX=0;entryY=0.5;entryDx=0;entryDy=0;" parent="WIyWlLk6GJQsqaUBKTNV-1" source="JuefPMasyWt4HqnyWnt0-16" target="JuefPMasyWt4HqnyWnt0-17" edge="1">
                    <mxGeometry relative="1" as="geometry"/>
                </mxCell>
                <mxCell id="JuefPMasyWt4HqnyWnt0-16" value="Voeg nieuwe code toe." style="rounded=1;whiteSpace=wrap;html=1;" parent="WIyWlLk6GJQsqaUBKTNV-1" vertex="1">
                    <mxGeometry x="530" y="385" width="120" height="60" as="geometry"/>
                </mxCell>
                <mxCell id="JuefPMasyWt4HqnyWnt0-21" style="edgeStyle=orthogonalEdgeStyle;rounded=0;orthogonalLoop=1;jettySize=auto;html=1;exitX=1;exitY=0.5;exitDx=0;exitDy=0;entryX=0;entryY=0.5;entryDx=0;entryDy=0;startArrow=none;" parent="WIyWlLk6GJQsqaUBKTNV-1" source="JuefPMasyWt4HqnyWnt0-22" target="JuefPMasyWt4HqnyWnt0-20" edge="1">
                    <mxGeometry relative="1" as="geometry"/>
                </mxCell>
                <mxCell id="JuefPMasyWt4HqnyWnt0-27" value="" style="edgeStyle=orthogonalEdgeStyle;rounded=0;orthogonalLoop=1;jettySize=auto;html=1;startArrow=none;" parent="WIyWlLk6GJQsqaUBKTNV-1" source="JuefPMasyWt4HqnyWnt0-32" target="JuefPMasyWt4HqnyWnt0-26" edge="1">
                    <mxGeometry relative="1" as="geometry"/>
                </mxCell>
                <mxCell id="JuefPMasyWt4HqnyWnt0-17" value="Heeft klant een referralcode gebruikt?" style="rhombus;whiteSpace=wrap;html=1;" parent="WIyWlLk6GJQsqaUBKTNV-1" vertex="1">
                    <mxGeometry x="746" y="345" width="148" height="140" as="geometry"/>
                </mxCell>
                <mxCell id="JuefPMasyWt4HqnyWnt0-28" style="edgeStyle=orthogonalEdgeStyle;rounded=0;orthogonalLoop=1;jettySize=auto;html=1;exitX=0.5;exitY=1;exitDx=0;exitDy=0;entryX=0.5;entryY=0;entryDx=0;entryDy=0;" parent="WIyWlLk6GJQsqaUBKTNV-1" source="JuefPMasyWt4HqnyWnt0-20" target="JuefPMasyWt4HqnyWnt0-24" edge="1">
                    <mxGeometry relative="1" as="geometry"/>
                </mxCell>
                <mxCell id="JuefPMasyWt4HqnyWnt0-31" value="" style="edgeStyle=orthogonalEdgeStyle;rounded=0;orthogonalLoop=1;jettySize=auto;html=1;" parent="WIyWlLk6GJQsqaUBKTNV-1" source="JuefPMasyWt4HqnyWnt0-20" target="JuefPMasyWt4HqnyWnt0-30" edge="1">
                    <mxGeometry relative="1" as="geometry"/>
                </mxCell>
                <mxCell id="JuefPMasyWt4HqnyWnt0-20" value="Voeg deze order aan Database toe: &quot;usedReferrals&quot;&lt;br&gt;&amp;amp;&amp;amp;&lt;br&gt;Stuur melding naar Michael" style="rounded=1;whiteSpace=wrap;html=1;" parent="WIyWlLk6GJQsqaUBKTNV-1" vertex="1">
                    <mxGeometry x="1050" y="370" width="150" height="90" as="geometry"/>
                </mxCell>
                <mxCell id="JuefPMasyWt4HqnyWnt0-22" value="Ja" style="text;html=1;align=center;verticalAlign=middle;resizable=0;points=[];autosize=1;strokeColor=none;fillColor=none;" parent="WIyWlLk6GJQsqaUBKTNV-1" vertex="1">
                    <mxGeometry x="950" y="405" width="30" height="20" as="geometry"/>
                </mxCell>
                <mxCell id="JuefPMasyWt4HqnyWnt0-23" value="" style="edgeStyle=orthogonalEdgeStyle;rounded=0;orthogonalLoop=1;jettySize=auto;html=1;exitX=1;exitY=0.5;exitDx=0;exitDy=0;entryX=0;entryY=0.5;entryDx=0;entryDy=0;endArrow=none;" parent="WIyWlLk6GJQsqaUBKTNV-1" source="JuefPMasyWt4HqnyWnt0-17" target="JuefPMasyWt4HqnyWnt0-22" edge="1">
                    <mxGeometry relative="1" as="geometry">
                        <mxPoint x="894" y="580" as="sourcePoint"/>
                        <mxPoint x="1000" y="585" as="targetPoint"/>
                    </mxGeometry>
                </mxCell>
                <mxCell id="JuefPMasyWt4HqnyWnt0-24" value="Voeg nieuw aangemaakt code toe aan ActiveCampaign Contact" style="rounded=1;whiteSpace=wrap;html=1;" parent="WIyWlLk6GJQsqaUBKTNV-1" vertex="1">
                    <mxGeometry x="1050" y="570" width="150" height="80" as="geometry"/>
                </mxCell>
                <mxCell id="JuefPMasyWt4HqnyWnt0-29" style="edgeStyle=orthogonalEdgeStyle;rounded=0;orthogonalLoop=1;jettySize=auto;html=1;exitX=1;exitY=0.5;exitDx=0;exitDy=0;" parent="WIyWlLk6GJQsqaUBKTNV-1" source="JuefPMasyWt4HqnyWnt0-26" target="JuefPMasyWt4HqnyWnt0-24" edge="1">
                    <mxGeometry relative="1" as="geometry"/>
                </mxCell>
                <mxCell id="JuefPMasyWt4HqnyWnt0-26" value="Doe niks" style="rounded=1;whiteSpace=wrap;html=1;" parent="WIyWlLk6GJQsqaUBKTNV-1" vertex="1">
                    <mxGeometry x="760" y="580" width="120" height="60" as="geometry"/>
                </mxCell>
                <mxCell id="JuefPMasyWt4HqnyWnt0-44" style="edgeStyle=orthogonalEdgeStyle;rounded=0;orthogonalLoop=1;jettySize=auto;html=1;exitX=1;exitY=0.5;exitDx=0;exitDy=0;" parent="WIyWlLk6GJQsqaUBKTNV-1" source="JuefPMasyWt4HqnyWnt0-30" target="JuefPMasyWt4HqnyWnt0-45" edge="1">
                    <mxGeometry relative="1" as="geometry">
                        <mxPoint x="1540" y="415" as="targetPoint"/>
                    </mxGeometry>
                </mxCell>
                <mxCell id="JuefPMasyWt4HqnyWnt0-30" value="Stuur E-Mail naar Michael dat er een code gebruikt is" style="whiteSpace=wrap;html=1;rounded=1;" parent="WIyWlLk6GJQsqaUBKTNV-1" vertex="1">
                    <mxGeometry x="1295" y="385" width="120" height="60" as="geometry"/>
                </mxCell>
                <mxCell id="JuefPMasyWt4HqnyWnt0-32" value="Nee" style="text;html=1;align=center;verticalAlign=middle;resizable=0;points=[];autosize=1;strokeColor=none;fillColor=none;" parent="WIyWlLk6GJQsqaUBKTNV-1" vertex="1">
                    <mxGeometry x="800" y="520" width="40" height="20" as="geometry"/>
                </mxCell>
                <mxCell id="JuefPMasyWt4HqnyWnt0-33" value="" style="edgeStyle=orthogonalEdgeStyle;rounded=0;orthogonalLoop=1;jettySize=auto;html=1;endArrow=none;" parent="WIyWlLk6GJQsqaUBKTNV-1" source="JuefPMasyWt4HqnyWnt0-17" target="JuefPMasyWt4HqnyWnt0-32" edge="1">
                    <mxGeometry relative="1" as="geometry">
                        <mxPoint x="820" y="485" as="sourcePoint"/>
                        <mxPoint x="820" y="580" as="targetPoint"/>
                    </mxGeometry>
                </mxCell>
                <mxCell id="JuefPMasyWt4HqnyWnt0-37" style="edgeStyle=orthogonalEdgeStyle;rounded=0;orthogonalLoop=1;jettySize=auto;html=1;exitX=1;exitY=0.5;exitDx=0;exitDy=0;entryX=0.051;entryY=0.513;entryDx=0;entryDy=0;entryPerimeter=0;startArrow=none;" parent="WIyWlLk6GJQsqaUBKTNV-1" source="JuefPMasyWt4HqnyWnt0-38" target="JuefPMasyWt4HqnyWnt0-4" edge="1">
                    <mxGeometry relative="1" as="geometry"/>
                </mxCell>
                <mxCell id="JuefPMasyWt4HqnyWnt0-40" style="edgeStyle=orthogonalEdgeStyle;rounded=0;orthogonalLoop=1;jettySize=auto;html=1;exitX=0.5;exitY=1;exitDx=0;exitDy=0;entryX=0.5;entryY=0;entryDx=0;entryDy=0;startArrow=none;" parent="WIyWlLk6GJQsqaUBKTNV-1" source="JuefPMasyWt4HqnyWnt0-42" target="JuefPMasyWt4HqnyWnt0-41" edge="1">
                    <mxGeometry relative="1" as="geometry">
                        <mxPoint x="320" y="380" as="targetPoint"/>
                    </mxGeometry>
                </mxCell>
                <mxCell id="JuefPMasyWt4HqnyWnt0-34" value="Is order geldig?&lt;br&gt;(Dummringen etc&lt;br&gt;&amp;nbsp;uitgesloten)" style="rhombus;whiteSpace=wrap;html=1;" parent="WIyWlLk6GJQsqaUBKTNV-1" vertex="1">
                    <mxGeometry x="240" y="140" width="160" height="150" as="geometry"/>
                </mxCell>
                <mxCell id="JuefPMasyWt4HqnyWnt0-38" value="Ja" style="text;html=1;align=center;verticalAlign=middle;resizable=0;points=[];autosize=1;strokeColor=none;fillColor=none;" parent="WIyWlLk6GJQsqaUBKTNV-1" vertex="1">
                    <mxGeometry x="440" y="205" width="30" height="20" as="geometry"/>
                </mxCell>
                <mxCell id="JuefPMasyWt4HqnyWnt0-39" value="" style="edgeStyle=orthogonalEdgeStyle;rounded=0;orthogonalLoop=1;jettySize=auto;html=1;exitX=1;exitY=0.5;exitDx=0;exitDy=0;entryX=0.051;entryY=0.513;entryDx=0;entryDy=0;entryPerimeter=0;endArrow=none;" parent="WIyWlLk6GJQsqaUBKTNV-1" source="JuefPMasyWt4HqnyWnt0-34" target="JuefPMasyWt4HqnyWnt0-38" edge="1">
                    <mxGeometry relative="1" as="geometry">
                        <mxPoint x="400" y="215" as="sourcePoint"/>
                        <mxPoint x="497.1400000000001" y="211.55999999999995" as="targetPoint"/>
                    </mxGeometry>
                </mxCell>
                <mxCell id="JuefPMasyWt4HqnyWnt0-41" value="Stop hier en doe niks" style="rounded=1;whiteSpace=wrap;html=1;" parent="WIyWlLk6GJQsqaUBKTNV-1" vertex="1">
                    <mxGeometry x="260" y="385" width="120" height="60" as="geometry"/>
                </mxCell>
                <mxCell id="JuefPMasyWt4HqnyWnt0-42" value="Nee" style="text;html=1;align=center;verticalAlign=middle;resizable=0;points=[];autosize=1;strokeColor=none;fillColor=none;" parent="WIyWlLk6GJQsqaUBKTNV-1" vertex="1">
                    <mxGeometry x="300" y="325" width="40" height="20" as="geometry"/>
                </mxCell>
                <mxCell id="JuefPMasyWt4HqnyWnt0-43" value="" style="edgeStyle=orthogonalEdgeStyle;rounded=0;orthogonalLoop=1;jettySize=auto;html=1;exitX=0.5;exitY=1;exitDx=0;exitDy=0;entryX=0.5;entryY=0;entryDx=0;entryDy=0;endArrow=none;" parent="WIyWlLk6GJQsqaUBKTNV-1" source="JuefPMasyWt4HqnyWnt0-34" target="JuefPMasyWt4HqnyWnt0-42" edge="1">
                    <mxGeometry relative="1" as="geometry">
                        <mxPoint x="320" y="385" as="targetPoint"/>
                        <mxPoint x="320" y="290" as="sourcePoint"/>
                    </mxGeometry>
                </mxCell>
                <mxCell id="JuefPMasyWt4HqnyWnt0-45" value="Afhandeling Referralcode (volledig handmatig)" style="rounded=1;whiteSpace=wrap;html=1;" parent="WIyWlLk6GJQsqaUBKTNV-1" vertex="1">
                    <mxGeometry x="1480" y="370" width="150" height="90" as="geometry"/>
                </mxCell>
            </root>
        </mxGraphModel>
    </diagram>
</mxfile>